<?xml version="1.0" encoding="UTF-8"?>
<!DOCTYPE svg PUBLIC "-//W3C//DTD SVG 1.1//EN" "http://www.w3.org/Graphics/SVG/1.1/DTD/svg11.dtd">
<svg xmlns="http://www.w3.org/2000/svg" version="1.1" width="96px" height="96px" style="shape-rendering:geometricPrecision; text-rendering:geometricPrecision; image-rendering:optimizeQuality; fill-rule:evenodd; clip-rule:evenodd" xmlns:xlink="http://www.w3.org/1999/xlink">
<g><path style="opacity:0.974" fill="#b12222" d="M 12.5,11.5 C 18.9049,10.4062 21.2382,13.0729 19.5,19.5C 23.1817,19.3347 26.8484,19.5014 30.5,20C 31.8333,22.3333 31.8333,24.6667 30.5,27C 26.8484,27.4986 23.1817,27.6653 19.5,27.5C 19.5,32.8333 19.5,38.1667 19.5,43.5C 29.8387,43.3335 40.172,43.5002 50.5,44C 51.8333,46.3333 51.8333,48.6667 50.5,51C 40.172,51.4998 29.8387,51.6665 19.5,51.5C 19.5,56.8333 19.5,62.1667 19.5,67.5C 26.6593,65.8203 28.9926,68.3203 26.5,75C 24.1902,75.4966 21.8568,75.6633 19.5,75.5C 21.1797,82.6593 18.6797,84.9926 12,82.5C 11.1777,58.7608 11.3444,35.0942 12.5,11.5 Z"/></g>
<g><path style="opacity:0.96" fill="#b12121" d="M 43.5,15.5 C 46.1873,15.3359 48.854,15.5026 51.5,16C 52.91,16.3678 53.91,17.2011 54.5,18.5C 63.8155,19.3321 73.1489,19.8321 82.5,20C 83.5914,22.0639 83.7581,24.2305 83,26.5C 73.5597,27.1547 64.0597,27.8214 54.5,28.5C 53.91,29.7989 52.91,30.6322 51.5,31C 41.6667,33.1667 37.8333,29.3333 40,19.5C 40.6897,17.6498 41.8564,16.3164 43.5,15.5 Z"/></g>
<g><path style="opacity:0.937" fill="#b12121" d="M 63.5,39.5 C 66.1873,39.3359 68.854,39.5026 71.5,40C 74.567,42.6935 78.2337,44.0268 82.5,44C 83.5914,46.0639 83.7581,48.2305 83,50.5C 78.6588,50.8692 74.8255,52.3692 71.5,55C 61.6667,57.1667 57.8333,53.3333 60,43.5C 60.6897,41.6498 61.8564,40.3164 63.5,39.5 Z"/></g>
<g><path style="opacity:0.963" fill="#b12121" d="M 39.5,63.5 C 42.1873,63.3359 44.854,63.5026 47.5,64C 48.91,64.3678 49.91,65.2011 50.5,66.5C 61.1511,67.3324 71.8178,67.8324 82.5,68C 83.5914,70.0639 83.7581,72.2305 83,74.5C 72.2276,75.1562 61.3942,75.8229 50.5,76.5C 49.91,77.7989 48.91,78.6322 47.5,79C 37.6667,81.1667 33.8333,77.3333 36,67.5C 36.6897,65.6498 37.8564,64.3164 39.5,63.5 Z"/></g>
</svg>
