<?xml version="1.0" encoding="UTF-8"?>
<!DOCTYPE svg PUBLIC "-//W3C//DTD SVG 1.1//EN" "http://www.w3.org/Graphics/SVG/1.1/DTD/svg11.dtd">
<svg xmlns="http://www.w3.org/2000/svg" version="1.1" width="96px" height="96px" style="shape-rendering:geometricPrecision; text-rendering:geometricPrecision; image-rendering:optimizeQuality; fill-rule:evenodd; clip-rule:evenodd" xmlns:xlink="http://www.w3.org/1999/xlink">
<g><path style="opacity:0.955" fill="#b12121" d="M 38.5,7.5 C 63.6508,4.81102 79.8175,15.4777 87,39.5C 87.9094,45.6123 87.576,51.6123 86,57.5C 85.2496,58.1258 84.4162,58.6258 83.5,59C 78.1667,59.3333 72.8333,59.6667 67.5,60C 63,60.5 60.5,63 60,67.5C 59.6667,72.8333 59.3333,78.1667 59,83.5C 58.5,85.3333 57.3333,86.5 55.5,87C 38.3215,89.653 24.4882,84.153 14,70.5C 6.1329,56.5519 5.46623,42.2185 12,27.5C 18.4453,17.5404 27.2787,10.8737 38.5,7.5 Z M 38.5,16.5 C 46.4863,15.998 48.4863,19.1647 44.5,26C 36.424,26.8047 34.424,23.638 38.5,16.5 Z M 58.5,20.5 C 66.4863,19.998 68.4863,23.1647 64.5,30C 56.424,30.8047 54.424,27.638 58.5,20.5 Z M 22.5,28.5 C 30.4863,27.998 32.4863,31.1647 28.5,38C 20.424,38.8047 18.424,35.638 22.5,28.5 Z M 70.5,40.5 C 78.4863,39.998 80.4863,43.1647 76.5,50C 68.424,50.8047 66.424,47.638 70.5,40.5 Z M 18.5,48.5 C 26.4863,47.998 28.4863,51.1647 24.5,58C 16.424,58.8047 14.424,55.638 18.5,48.5 Z M 40.5,64.5 C 49.8504,64.3654 52.517,68.532 48.5,77C 39.9562,80.3224 36.1229,77.4891 37,68.5C 37.6897,66.6498 38.8564,65.3164 40.5,64.5 Z"/></g>
</svg>
