<?xml version="1.0" encoding="UTF-8"?>
<!DOCTYPE svg PUBLIC "-//W3C//DTD SVG 1.1//EN" "http://www.w3.org/Graphics/SVG/1.1/DTD/svg11.dtd">
<svg xmlns="http://www.w3.org/2000/svg" version="1.1" width="96px" height="96px" style="shape-rendering:geometricPrecision; text-rendering:geometricPrecision; image-rendering:optimizeQuality; fill-rule:evenodd; clip-rule:evenodd" xmlns:xlink="http://www.w3.org/1999/xlink">
<g><path style="opacity:0.984" fill="#b12222" d="M 19.5,7.5 C 31.8378,7.33346 44.1712,7.50012 56.5,8C 64,15.5 71.5,23 79,30.5C 79.4995,36.4908 79.6662,42.4908 79.5,48.5C 64.1143,47.2726 53.9476,53.9393 49,68.5C 48.0343,74.6514 48.5343,80.6514 50.5,86.5C 45.3333,86.8333 40.1667,87.1667 35,87.5C 29.0613,87.623 23.228,87.123 17.5,86C 16.8742,85.2496 16.3742,84.4162 16,83.5C 15.3333,59.5 15.3333,35.5 16,11.5C 16.6897,9.64977 17.8564,8.31643 19.5,7.5 Z M 51.5,14.5 C 58.6315,21.1307 65.6315,27.9641 72.5,35C 66.0559,35.9148 59.7226,35.5815 53.5,34C 52.8742,33.2496 52.3742,32.4162 52,31.5C 51.5006,25.8431 51.3339,20.1764 51.5,14.5 Z"/></g>
<g><path style="opacity:0.946" fill="#b12121" d="M 95.5,68.5 C 95.5,73.1667 95.5,77.8333 95.5,82.5C 94.0242,84.7686 92.5242,87.1019 91,89.5C 88.2639,91.7519 85.4305,93.7519 82.5,95.5C 77.8333,95.5 73.1667,95.5 68.5,95.5C 57.381,89.9201 53.2143,80.9201 56,68.5C 61.3426,57.2477 70.1759,53.0811 82.5,56C 88.6846,58.3531 93.018,62.5198 95.5,68.5 Z M 73.5,63.5 C 74.8333,63.5 76.1667,63.5 77.5,63.5C 77.5,68.5 77.5,73.5 77.5,78.5C 76.1667,78.5 74.8333,78.5 73.5,78.5C 73.5,73.5 73.5,68.5 73.5,63.5 Z M 73.5,83.5 C 74.8333,83.5 76.1667,83.5 77.5,83.5C 77.7778,85.3464 77.1112,86.6798 75.5,87.5C 73.8888,86.6798 73.2222,85.3464 73.5,83.5 Z"/></g>
</svg>
