<?xml version="1.0" encoding="UTF-8"?>
<!DOCTYPE svg PUBLIC "-//W3C//DTD SVG 1.1//EN" "http://www.w3.org/Graphics/SVG/1.1/DTD/svg11.dtd">
<svg xmlns="http://www.w3.org/2000/svg" version="1.1" width="96px" height="96px" style="shape-rendering:geometricPrecision; text-rendering:geometricPrecision; image-rendering:optimizeQuality; fill-rule:evenodd; clip-rule:evenodd" xmlns:xlink="http://www.w3.org/1999/xlink">
<g><path style="opacity:0.992" fill="#b22121" d="M 15.5,11.5 C 36.8359,11.3334 58.1693,11.5 79.5,12C 80.4162,12.3742 81.2496,12.8742 82,13.5C 83.1462,24.7404 83.6462,36.0737 83.5,47.5C 93.1667,81.1667 81.1667,93.1667 47.5,83.5C 36.8333,83.3333 26.1667,83.1667 15.5,83C 14.5838,82.6258 13.7504,82.1258 13,81.5C 11.3556,59.5886 11.0222,37.5886 12,15.5C 12.6897,13.6498 13.8564,12.3164 15.5,11.5 Z M 19.5,19.5 C 31.5,19.5 43.5,19.5 55.5,19.5C 55.5,27.5 55.5,35.5 55.5,43.5C 51.5,43.5 47.5,43.5 43.5,43.5C 43.6641,40.8127 43.4974,38.146 43,35.5C 41.2739,34.4238 39.4406,34.2571 37.5,35C 33.1418,38.5058 29.8084,42.6724 27.5,47.5C 29.8084,52.3276 33.1418,56.4942 37.5,60C 39.4406,60.7429 41.2739,60.5762 43,59.5C 43.4974,56.854 43.6641,54.1873 43.5,51.5C 47.5,51.5 51.5,51.5 55.5,51.5C 55.5,59.5 55.5,67.5 55.5,75.5C 43.5,75.5 31.5,75.5 19.5,75.5C 19.5,56.8333 19.5,38.1667 19.5,19.5 Z"/></g>
</svg>
