<?xml version="1.0" encoding="UTF-8"?>
<!DOCTYPE svg PUBLIC "-//W3C//DTD SVG 1.1//EN" "http://www.w3.org/Graphics/SVG/1.1/DTD/svg11.dtd">
<svg xmlns="http://www.w3.org/2000/svg" version="1.1" width="512px" height="512px" style="shape-rendering:geometricPrecision; text-rendering:geometricPrecision; image-rendering:optimizeQuality; fill-rule:evenodd; clip-rule:evenodd" xmlns:xlink="http://www.w3.org/1999/xlink">
<g><path style="opacity:0.996" fill="#fe5a54" d="M 495.5,268.5 C 446.785,220.118 398.119,171.785 349.5,123.5C 323.778,92.1563 290.445,77.9897 249.5,81C 198.33,87.8277 165.164,115.994 150,165.5C 146.926,174.617 145.926,183.95 147,193.5C 148.941,200.094 152.774,205.094 158.5,208.5C 182.829,234.5 208.162,260.167 234.5,285.5C 230.568,300.916 229.068,316.582 230,332.5C 231.576,341.012 236.076,347.345 243.5,351.5C 243.062,351.435 242.728,351.601 242.5,352C 282.368,391.701 322.035,431.535 361.5,471.5C 360.167,472.167 358.833,472.833 357.5,473.5C 330.452,445.785 303.119,418.452 275.5,391.5C 266.665,379.725 255.332,376.559 241.5,382C 226.441,392.169 223.608,405.003 233,420.5C 235.772,423.783 238.939,426.45 242.5,428.5C 242.062,428.435 241.728,428.601 241.5,429C 262.368,449.701 283.035,470.535 303.5,491.5C 208.296,506.83 129.462,478.163 67,405.5C 19.0863,341.939 4.41968,271.272 23,193.5C 50.3894,102.777 109.889,45.2773 201.5,21C 291.109,3.65347 367.942,27.1535 432,91.5C 477.014,141.693 498.181,200.693 495.5,268.5 Z"/></g>
<g><path style="opacity:1" fill="#fefdfd" d="M 349.5,123.5 C 363.68,145.902 368.18,170.235 363,196.5C 352.735,234.433 330.235,262.6 295.5,281C 284.567,289.023 278.4,299.856 277,313.5C 276.667,320.5 276.333,327.5 276,334.5C 270.479,350.013 259.645,355.68 243.5,351.5C 236.076,347.345 231.576,341.012 230,332.5C 229.068,316.582 230.568,300.916 234.5,285.5C 239.103,270.739 247.436,258.572 259.5,249C 273.126,240.938 285.959,231.771 298,221.5C 310.683,208.629 317.516,193.129 318.5,175C 315.066,150.224 301.066,134.891 276.5,129C 238.464,122.763 211.964,137.263 197,172.5C 194.333,181.879 191.666,191.213 189,200.5C 180.719,210.279 170.552,212.946 158.5,208.5C 152.774,205.094 148.941,200.094 147,193.5C 145.926,183.95 146.926,174.617 150,165.5C 165.164,115.994 198.33,87.8277 249.5,81C 290.445,77.9897 323.778,92.1563 349.5,123.5 Z"/></g>
<g><path style="opacity:1" fill="#db3a3c" d="M 349.5,123.5 C 398.119,171.785 446.785,220.118 495.5,268.5C 489.378,347.274 454.378,409.44 390.5,455C 381.131,461.018 371.464,466.518 361.5,471.5C 322.035,431.535 282.368,391.701 242.5,352C 242.728,351.601 243.062,351.435 243.5,351.5C 259.645,355.68 270.479,350.013 276,334.5C 276.333,327.5 276.667,320.5 277,313.5C 278.4,299.856 284.567,289.023 295.5,281C 330.235,262.6 352.735,234.433 363,196.5C 368.18,170.235 363.68,145.902 349.5,123.5 Z"/></g>
<g><path style="opacity:1" fill="#db3a3c" d="M 234.5,285.5 C 208.162,260.167 182.829,234.5 158.5,208.5C 170.552,212.946 180.719,210.279 189,200.5C 191.666,191.213 194.333,181.879 197,172.5C 211.964,137.263 238.464,122.763 276.5,129C 301.066,134.891 315.066,150.224 318.5,175C 317.516,193.129 310.683,208.629 298,221.5C 285.959,231.771 273.126,240.938 259.5,249C 247.436,258.572 239.103,270.739 234.5,285.5 Z"/></g>
<g><path style="opacity:1" fill="#fefcfc" d="M 275.5,391.5 C 281.882,405.781 278.882,417.614 266.5,427C 258.696,430.968 250.696,431.468 242.5,428.5C 238.939,426.45 235.772,423.783 233,420.5C 223.608,405.003 226.441,392.169 241.5,382C 255.332,376.559 266.665,379.725 275.5,391.5 Z"/></g>
<g><path style="opacity:1" fill="#db3a3c" d="M 275.5,391.5 C 303.119,418.452 330.452,445.785 357.5,473.5C 340.227,481.652 322.227,487.652 303.5,491.5C 283.035,470.535 262.368,449.701 241.5,429C 241.728,428.601 242.062,428.435 242.5,428.5C 250.696,431.468 258.696,430.968 266.5,427C 278.882,417.614 281.882,405.781 275.5,391.5 Z"/></g>
</svg>
