<?xml version="1.0" encoding="UTF-8"?>
<!DOCTYPE svg PUBLIC "-//W3C//DTD SVG 1.1//EN" "http://www.w3.org/Graphics/SVG/1.1/DTD/svg11.dtd">
<svg xmlns="http://www.w3.org/2000/svg" version="1.1" width="96px" height="96px" style="shape-rendering:geometricPrecision; text-rendering:geometricPrecision; image-rendering:optimizeQuality; fill-rule:evenodd; clip-rule:evenodd" xmlns:xlink="http://www.w3.org/1999/xlink">
<g><path style="opacity:0.903" fill="#b22222" d="M 44.5,-0.5 C 46.5,-0.5 48.5,-0.5 50.5,-0.5C 51.5887,3.0779 51.7554,6.74457 51,10.5C 48.6667,11.8333 46.3333,11.8333 44,10.5C 43.2446,6.74457 43.4113,3.0779 44.5,-0.5 Z"/></g>
<g><path style="opacity:0.872" fill="#b12121" d="M 14.5,11.5 C 20.5012,12.3227 23.3345,15.6561 23,21.5C 17.2493,24.5176 13.4159,22.6843 11.5,16C 12.3146,14.3566 13.3146,12.8566 14.5,11.5 Z"/></g>
<g><path style="opacity:0.857" fill="#b12121" d="M 77.5,11.5 C 81.3233,11.8183 83.1567,13.8183 83,17.5C 81.2265,21.9727 78.0598,23.8061 73.5,23C 71.6041,21.1917 71.1041,19.025 72,16.5C 73.7297,14.5981 75.563,12.9314 77.5,11.5 Z"/></g>
<g><path style="opacity:0.977" fill="#b12222" d="M 39.5,19.5 C 65.312,17.8116 77.1453,29.8116 75,55.5C 68.6711,71.7521 56.8378,78.2521 39.5,75C 23.2479,68.6711 16.7479,56.8378 20,39.5C 23.3514,29.6498 29.8514,22.9831 39.5,19.5 Z"/></g>
<g><path style="opacity:0.903" fill="#b22222" d="M -0.5,50.5 C -0.5,48.5 -0.5,46.5 -0.5,44.5C 3.0779,43.4113 6.74457,43.2446 10.5,44C 11.8333,46.3333 11.8333,48.6667 10.5,51C 6.74457,51.7554 3.0779,51.5887 -0.5,50.5 Z"/></g>
<g><path style="opacity:0.903" fill="#b22222" d="M 95.5,44.5 C 95.5,46.5 95.5,48.5 95.5,50.5C 91.9221,51.5887 88.2554,51.7554 84.5,51C 83.1667,48.6667 83.1667,46.3333 84.5,44C 88.2554,43.2446 91.9221,43.4113 95.5,44.5 Z"/></g>
<g><path style="opacity:0.851" fill="#b12121" d="M 16.5,71.5 C 22.0001,70.8314 24.1667,73.1647 23,78.5C 21.2125,80.9576 18.8792,82.6242 16,83.5C 13.8333,82.6667 12.3333,81.1667 11.5,79C 12.5892,76.0844 14.2558,73.5844 16.5,71.5 Z"/></g>
<g><path style="opacity:0.843" fill="#b12121" d="M 73.5,71.5 C 78.6373,71.4575 81.9706,73.9575 83.5,79C 82.0254,83.3791 79.3587,84.3791 75.5,82C 71.1505,79.0911 70.4839,75.5911 73.5,71.5 Z"/></g>
<g><path style="opacity:0.903" fill="#b22222" d="M 50.5,95.5 C 48.5,95.5 46.5,95.5 44.5,95.5C 43.4113,91.9221 43.2446,88.2554 44,84.5C 46.3333,83.1667 48.6667,83.1667 51,84.5C 51.7554,88.2554 51.5887,91.9221 50.5,95.5 Z"/></g>
</svg>
