<?xml version="1.0" encoding="UTF-8"?>
<!DOCTYPE svg PUBLIC "-//W3C//DTD SVG 1.1//EN" "http://www.w3.org/Graphics/SVG/1.1/DTD/svg11.dtd">
<svg xmlns="http://www.w3.org/2000/svg" version="1.1" width="96px" height="96px" style="shape-rendering:geometricPrecision; text-rendering:geometricPrecision; image-rendering:optimizeQuality; fill-rule:evenodd; clip-rule:evenodd" xmlns:xlink="http://www.w3.org/1999/xlink">
<g><path style="opacity:0.988" fill="#b22222" d="M 16.5,11.5 C 18.7925,11.2436 20.9592,11.5769 23,12.5C 23.5,32.1638 23.6666,51.8305 23.5,71.5C 43.1695,71.3334 62.8362,71.5 82.5,72C 83.8333,74.3333 83.8333,76.6667 82.5,79C 60.7446,79.9774 39.0779,79.6441 17.5,78C 16.8742,77.2496 16.3742,76.4162 16,75.5C 15.1789,54.0938 15.3456,32.7605 16.5,11.5 Z"/></g>
<g><path style="opacity:0.878" fill="#b22121" d="M 76.5,23.5 C 82.6739,22.1729 84.8406,24.5062 83,30.5C 77.5,36 72,41.5 66.5,47C 64.5,47.6667 62.5,47.6667 60.5,47C 57.6511,43.9838 54.6511,41.1504 51.5,38.5C 45.6813,43.8184 40.0146,49.3184 34.5,55C 28.3333,56.8333 26.1667,54.6667 28,48.5C 34.8333,41.6667 41.6667,34.8333 48.5,28C 50.5,27.3333 52.5,27.3333 54.5,28C 57.3489,31.0162 60.3489,33.8496 63.5,36.5C 68.1877,32.479 72.521,28.1456 76.5,23.5 Z"/></g>
</svg>
