<?xml version="1.0" encoding="UTF-8"?>
<!DOCTYPE svg PUBLIC "-//W3C//DTD SVG 1.1//EN" "http://www.w3.org/Graphics/SVG/1.1/DTD/svg11.dtd">
<svg xmlns="http://www.w3.org/2000/svg" version="1.1" width="96px" height="96px" style="shape-rendering:geometricPrecision; text-rendering:geometricPrecision; image-rendering:optimizeQuality; fill-rule:evenodd; clip-rule:evenodd" xmlns:xlink="http://www.w3.org/1999/xlink">
<g><path style="opacity:0.988" fill="#b12121" d="M 19.5,11.5 C 38.1696,11.3334 56.8363,11.5001 75.5,12C 78.1258,16.0838 80.6258,20.2505 83,24.5C 83.6667,42.8333 83.6667,61.1667 83,79.5C 82.6258,80.4162 82.1258,81.2496 81.5,82C 70.2596,83.1462 58.9263,83.6462 47.5,83.5C 36.8333,83.3333 26.1667,83.1667 15.5,83C 14.5838,82.6258 13.7504,82.1258 13,81.5C 11.3593,62.5901 11.0259,43.5901 12,24.5C 14.5117,20.1392 17.0117,15.8059 19.5,11.5 Z M 25.5,19.5 C 40.1705,19.3334 54.8371,19.5001 69.5,20C 71.0316,22.0344 72.3649,24.2011 73.5,26.5C 56.1667,27.8333 38.8333,27.8333 21.5,26.5C 22.8611,24.1495 24.1944,21.8162 25.5,19.5 Z M 45.5,40.5 C 48.2385,39.9648 50.0718,40.9648 51,43.5C 51.4988,47.4862 51.6655,51.4862 51.5,55.5C 55.0701,54.8929 57.7368,56.0596 59.5,59C 56.2948,63.7061 52.2948,67.5395 47.5,70.5C 42.7052,67.5395 38.7052,63.7061 35.5,59C 37.2632,56.0596 39.9299,54.8929 43.5,55.5C 43.0154,50.2709 43.6821,45.2709 45.5,40.5 Z"/></g>
</svg>
