<?xml version="1.0" encoding="UTF-8"?>
<!DOCTYPE svg PUBLIC "-//W3C//DTD SVG 1.1//EN" "http://www.w3.org/Graphics/SVG/1.1/DTD/svg11.dtd">
<svg xmlns="http://www.w3.org/2000/svg" version="1.1" width="96px" height="96px" style="shape-rendering:geometricPrecision; text-rendering:geometricPrecision; image-rendering:optimizeQuality; fill-rule:evenodd; clip-rule:evenodd" xmlns:xlink="http://www.w3.org/1999/xlink">
<g><path style="opacity:0.979" fill="#b22222" d="M 15.5,11.5 C 33.1698,11.3334 50.8365,11.5001 68.5,12C 73.3333,16.8333 78.1667,21.6667 83,26.5C 83.6667,31.8333 83.6667,37.1667 83,42.5C 75.5805,40.0733 68.0805,39.9066 60.5,42C 52.7039,46.8062 45.2039,51.9728 38,57.5C 35.5612,62.6625 36.2278,67.3292 40,71.5C 40.2816,75.4882 41.1149,79.3215 42.5,83C 33.5,83.6667 24.5,83.6667 15.5,83C 13.6667,82.5 12.5,81.3333 12,79.5C 11.3333,58.1667 11.3333,36.8333 12,15.5C 12.6897,13.6498 13.8564,12.3164 15.5,11.5 Z M 23.5,19.5 C 34.1719,19.3335 44.8385,19.5002 55.5,20C 57.3333,20.5 58.5,21.6667 59,23.5C 59.6667,26.1667 59.6667,28.8333 59,31.5C 58.5,33.3333 57.3333,34.5 55.5,35C 44.8333,35.6667 34.1667,35.6667 23.5,35C 20.484,33.4714 19.1506,30.9714 19.5,27.5C 19.2824,23.9342 20.6157,21.2675 23.5,19.5 Z"/></g>
<g><path style="opacity:0.95" fill="#b22121" d="M 95.5,64.5 C 95.5,69.1667 95.5,73.8333 95.5,78.5C 92.1667,86.5 86.5,92.1667 78.5,95.5C 73.8333,95.5 69.1667,95.5 64.5,95.5C 47.6456,87.447 43.1456,74.7803 51,57.5C 60.791,46.7566 72.291,44.59 85.5,51C 90.2693,54.5795 93.6026,59.0795 95.5,64.5 Z M 82.5,61.5 C 84.2959,62.7927 85.9625,64.2927 87.5,66C 81.6521,72.0149 75.6521,77.8482 69.5,83.5C 65.3484,79.8489 61.3484,76.0156 57.5,72C 59,70.5 60.5,69 62,67.5C 64.3494,70.0168 66.8494,72.3501 69.5,74.5C 74.1877,70.479 78.521,66.1456 82.5,61.5 Z"/></g>
</svg>
