<?xml version="1.0" encoding="UTF-8"?>
<!DOCTYPE svg PUBLIC "-//W3C//DTD SVG 1.1//EN" "http://www.w3.org/Graphics/SVG/1.1/DTD/svg11.dtd">
<svg xmlns="http://www.w3.org/2000/svg" version="1.1" width="96px" height="96px" style="shape-rendering:geometricPrecision; text-rendering:geometricPrecision; image-rendering:optimizeQuality; fill-rule:evenodd; clip-rule:evenodd" xmlns:xlink="http://www.w3.org/1999/xlink">
<g><path style="opacity:0.926" fill="#b22221" d="M 75.5,7.5 C 86.8598,6.71005 90.1931,11.5434 85.5,22C 82.692,22.9932 79.8587,23.8266 77,24.5C 75.3333,26.8333 73.6667,29.1667 72,31.5C 72.5837,42.4592 67.7503,45.9592 57.5,42C 56.2766,39.9479 55.2766,37.7812 54.5,35.5C 51.147,33.7989 47.8137,32.1322 44.5,30.5C 40.5075,31.4965 36.5075,31.6632 32.5,31C 29.8333,32.3333 27.1667,33.6667 24.5,35C 23.2627,42.4599 18.9294,45.1265 11.5,43C 9.66667,42.5 8.5,41.3333 8,39.5C 6.09748,29.0273 10.2641,25.3606 20.5,28.5C 23.8333,26.8333 27.1667,25.1667 30.5,23.5C 32.8055,15.5568 37.8055,13.3901 45.5,17C 46.8019,19.2129 47.8019,21.5463 48.5,24C 51.6843,25.7574 55.0176,27.2574 58.5,28.5C 60.7759,27.7868 63.1093,27.2868 65.5,27C 66.6217,24.8762 68.1217,23.0429 70,21.5C 71.1532,18.2889 71.8198,14.9555 72,11.5C 72.6897,9.64977 73.8564,8.31643 75.5,7.5 Z"/></g>
<g><path style="opacity:0.929" fill="#b12222" d="M 75.5,51.5 C 86.8598,50.71 90.1931,55.5434 85.5,66C 82.1327,66.7996 78.966,67.9663 76,69.5C 75.0467,71.4552 73.7134,73.1218 72,74.5C 73.2168,86.1312 68.3834,89.9645 57.5,86C 55.9799,83.4039 55.1466,80.5706 55,77.5C 52.8762,76.3783 51.0429,74.8783 49.5,73C 44.951,72.0351 40.451,70.8685 36,69.5C 32.1898,70.7442 28.3564,71.9109 24.5,73C 22.1357,79.0132 17.8024,81.0132 11.5,79C 9.66667,78.5 8.5,77.3333 8,75.5C 6.98109,63.8197 11.9811,60.4863 23,65.5C 26.8102,64.2558 30.6436,63.0891 34.5,62C 37.9942,55.2359 43.1608,53.7359 50,57.5C 51.092,60.0444 51.7586,62.7111 52,65.5C 54.1238,66.6217 55.9571,68.1217 57.5,70C 60.0301,71.4217 62.6967,71.755 65.5,71C 67.3333,68.5 69.1667,66 71,63.5C 71.3333,60.8333 71.6667,58.1667 72,55.5C 72.6897,53.6498 73.8564,52.3164 75.5,51.5 Z"/></g>
</svg>
