<?xml version="1.0" encoding="UTF-8"?>
<!DOCTYPE svg PUBLIC "-//W3C//DTD SVG 1.1//EN" "http://www.w3.org/Graphics/SVG/1.1/DTD/svg11.dtd">
<svg xmlns="http://www.w3.org/2000/svg" version="1.1" width="96px" height="96px" style="shape-rendering:geometricPrecision; text-rendering:geometricPrecision; image-rendering:optimizeQuality; fill-rule:evenodd; clip-rule:evenodd" xmlns:xlink="http://www.w3.org/1999/xlink">
<g><path style="opacity:0.967" fill="#b22121" d="M 52.5,11.5 C 58.6592,11.0339 64.6592,11.7006 70.5,13.5C 71.6139,14.723 71.7805,16.0563 71,17.5C 67.6667,20.8333 64.3333,24.1667 61,27.5C 59.6661,31.4854 60.9995,34.1521 65,35.5C 69.4668,32.0349 73.6334,28.2016 77.5,24C 78.9437,23.2195 80.277,23.3861 81.5,24.5C 86.8846,39.1882 82.8846,50.3548 69.5,58C 64.5836,59.1606 59.5836,59.8272 54.5,60C 45.4354,69.7343 35.7687,78.7343 25.5,87C 11.2209,89.0513 5.38755,82.8846 8,68.5C 16.3174,59.0158 25.1507,50.0158 34.5,41.5C 33.4013,27.0019 39.4013,17.0019 52.5,11.5 Z"/></g>
</svg>
