<?xml version="1.0" encoding="UTF-8"?>
<!DOCTYPE svg PUBLIC "-//W3C//DTD SVG 1.1//EN" "http://www.w3.org/Graphics/SVG/1.1/DTD/svg11.dtd">
<svg xmlns="http://www.w3.org/2000/svg" version="1.1" width="96px" height="96px" style="shape-rendering:geometricPrecision; text-rendering:geometricPrecision; image-rendering:optimizeQuality; fill-rule:evenodd; clip-rule:evenodd" xmlns:xlink="http://www.w3.org/1999/xlink">
<g><path style="opacity:1" fill="#b12221" d="M 15.5,7.5 C 36.8333,7.5 58.1667,7.5 79.5,7.5C 79.5,34.1667 79.5,60.8333 79.5,87.5C 58.1667,87.5 36.8333,87.5 15.5,87.5C 15.5,60.8333 15.5,34.1667 15.5,7.5 Z M 23.5,15.5 C 39.5,15.5 55.5,15.5 71.5,15.5C 71.5,20.8333 71.5,26.1667 71.5,31.5C 55.5,31.5 39.5,31.5 23.5,31.5C 23.5,26.1667 23.5,20.8333 23.5,15.5 Z M 27.5,39.5 C 30.1667,39.5 32.8333,39.5 35.5,39.5C 35.5,42.1667 35.5,44.8333 35.5,47.5C 32.8333,47.5 30.1667,47.5 27.5,47.5C 27.5,44.8333 27.5,42.1667 27.5,39.5 Z M 43.5,39.5 C 46.1667,39.5 48.8333,39.5 51.5,39.5C 51.5,42.1667 51.5,44.8333 51.5,47.5C 48.8333,47.5 46.1667,47.5 43.5,47.5C 43.5,44.8333 43.5,42.1667 43.5,39.5 Z M 59.5,39.5 C 62.1667,39.5 64.8333,39.5 67.5,39.5C 67.5,42.1667 67.5,44.8333 67.5,47.5C 64.8333,47.5 62.1667,47.5 59.5,47.5C 59.5,44.8333 59.5,42.1667 59.5,39.5 Z M 27.5,55.5 C 30.1667,55.5 32.8333,55.5 35.5,55.5C 35.5,58.1667 35.5,60.8333 35.5,63.5C 32.8333,63.5 30.1667,63.5 27.5,63.5C 27.5,60.8333 27.5,58.1667 27.5,55.5 Z M 43.5,55.5 C 46.1667,55.5 48.8333,55.5 51.5,55.5C 51.5,58.1667 51.5,60.8333 51.5,63.5C 48.8333,63.5 46.1667,63.5 43.5,63.5C 43.5,60.8333 43.5,58.1667 43.5,55.5 Z M 59.5,55.5 C 62.1667,55.5 64.8333,55.5 67.5,55.5C 67.5,58.1667 67.5,60.8333 67.5,63.5C 64.8333,63.5 62.1667,63.5 59.5,63.5C 59.5,60.8333 59.5,58.1667 59.5,55.5 Z M 27.5,71.5 C 30.1667,71.5 32.8333,71.5 35.5,71.5C 35.5,74.1667 35.5,76.8333 35.5,79.5C 32.8333,79.5 30.1667,79.5 27.5,79.5C 27.5,76.8333 27.5,74.1667 27.5,71.5 Z M 43.5,71.5 C 51.5,71.5 59.5,71.5 67.5,71.5C 67.5,74.1667 67.5,76.8333 67.5,79.5C 59.5,79.5 51.5,79.5 43.5,79.5C 43.5,76.8333 43.5,74.1667 43.5,71.5 Z"/></g>
</svg>
