<?xml version="1.0" encoding="UTF-8"?>
<!DOCTYPE svg PUBLIC "-//W3C//DTD SVG 1.1//EN" "http://www.w3.org/Graphics/SVG/1.1/DTD/svg11.dtd">
<svg xmlns="http://www.w3.org/2000/svg" version="1.1" width="500px" height="500px" style="shape-rendering:geometricPrecision; text-rendering:geometricPrecision; image-rendering:optimizeQuality; fill-rule:evenodd; clip-rule:evenodd" xmlns:xlink="http://www.w3.org/1999/xlink">
<g><path style="opacity:0.996" fill="#b22121" d="M 41.5,39.5 C 76.1683,39.3333 110.835,39.5 145.5,40C 150.929,41.802 155.429,44.9686 159,49.5C 163.727,55.8971 168.06,62.5637 172,69.5C 174.52,73.016 177.353,76.1827 180.5,79C 262.833,79.3333 345.167,79.6667 427.5,80C 437.503,82.6699 444.336,88.8366 448,98.5C 449.446,112.093 449.946,125.76 449.5,139.5C 332.833,139.333 216.166,139.5 99.5,140C 77.3006,141.342 61.8006,152.176 53,172.5C 42.0022,224.822 31.0022,277.155 20,329.5C 19.3333,240.167 19.3333,150.833 20,61.5C 23.3501,50.3177 30.5167,42.9844 41.5,39.5 Z"/></g>
<g><path style="opacity:0.998" fill="#b22121" d="M 499.5,181.5 C 499.5,186.167 499.5,190.833 499.5,195.5C 484.04,272.972 468.873,350.639 454,428.5C 449.825,444.675 439.658,454.842 423.5,459C 296.167,459.667 168.833,459.667 41.5,459C 27.2493,454.334 19.9159,444.501 19.5,429.5C 19.9531,421.732 21.1198,414.066 23,406.5C 38.9235,331.549 54.5902,256.549 70,181.5C 73.1403,170.36 80.3069,163.193 91.5,160C 220.167,159.333 348.833,159.333 477.5,160C 488.682,163.35 496.016,170.517 499.5,181.5 Z"/></g>
</svg>
