<?xml version="1.0" encoding="UTF-8"?>
<!DOCTYPE svg PUBLIC "-//W3C//DTD SVG 1.1//EN" "http://www.w3.org/Graphics/SVG/1.1/DTD/svg11.dtd">
<svg xmlns="http://www.w3.org/2000/svg" version="1.1" width="24px" height="24px" style="shape-rendering:geometricPrecision; text-rendering:geometricPrecision; image-rendering:optimizeQuality; fill-rule:evenodd; clip-rule:evenodd" xmlns:xlink="http://www.w3.org/1999/xlink">
<g><path style="opacity:0.978" fill="#b22222" d="M 2.5,2.5 C 8.5,2.5 14.5,2.5 20.5,2.5C 20.5,8.5 20.5,14.5 20.5,20.5C 14.5,20.5 8.5,20.5 2.5,20.5C 2.5,14.5 2.5,8.5 2.5,2.5 Z M 4.5,7.5 C 9.16667,7.5 13.8333,7.5 18.5,7.5C 18.5,11.1667 18.5,14.8333 18.5,18.5C 13.8333,18.5 9.16667,18.5 4.5,18.5C 4.5,14.8333 4.5,11.1667 4.5,7.5 Z"/></g>
<g><path style="opacity:0.846" fill="#b22222" d="M 13.5,9.5 C 14.5,9.5 15.5,9.5 16.5,9.5C 16.5,10.5 16.5,11.5 16.5,12.5C 13.4331,12.8795 12.4331,11.8795 13.5,9.5 Z"/></g>
<g><path style="opacity:0.876" fill="#b22121" d="M 6.5,10.5 C 7.97782,10.238 9.31116,10.5713 10.5,11.5C 9.83333,11.8333 9.16667,12.1667 8.5,12.5C 7.28665,12.2528 6.61998,11.5862 6.5,10.5 Z"/></g>
<g><path style="opacity:0.846" fill="#b22222" d="M 13.5,13.5 C 14.5,13.5 15.5,13.5 16.5,13.5C 16.5,14.5 16.5,15.5 16.5,16.5C 13.4331,16.8795 12.4331,15.8795 13.5,13.5 Z"/></g>
<g><path style="opacity:0.876" fill="#b22121" d="M 6.5,14.5 C 7.97782,14.238 9.31116,14.5713 10.5,15.5C 9.83333,15.8333 9.16667,16.1667 8.5,16.5C 7.28665,16.2528 6.61998,15.5862 6.5,14.5 Z"/></g>
</svg>
