<?xml version="1.0" encoding="UTF-8"?>
<!DOCTYPE svg PUBLIC "-//W3C//DTD SVG 1.1//EN" "http://www.w3.org/Graphics/SVG/1.1/DTD/svg11.dtd">
<svg xmlns="http://www.w3.org/2000/svg" version="1.1" width="26px" height="26px" style="shape-rendering:geometricPrecision; text-rendering:geometricPrecision; image-rendering:optimizeQuality; fill-rule:evenodd; clip-rule:evenodd" xmlns:xlink="http://www.w3.org/1999/xlink">
<g><path style="opacity:0.806" fill="#b22222" d="M -0.5,1.5 C 4.73407,2.06665 7.73407,5.06665 8.5,10.5C 11.4459,11.6548 14.4459,11.8214 17.5,11C 18.5218,8.45521 19.6884,5.95521 21,3.5C 22.1096,1.96317 23.6096,1.2965 25.5,1.5C 25.5,2.5 25.5,3.5 25.5,4.5C 22.9173,5.98499 21.584,8.31832 21.5,11.5C 22.8333,11.5 24.1667,11.5 25.5,11.5C 25.5,12.1667 25.5,12.8333 25.5,13.5C 23.712,13.2148 22.0453,13.5481 20.5,14.5C 19.6083,17.2837 18.4416,19.9504 17,22.5C 14.0844,24.0135 11.4177,23.6801 9,21.5C 7.86436,18.9036 7.03103,16.237 6.5,13.5C 4.83333,13.5 3.16667,13.5 1.5,13.5C 2.06896,17.3293 1.40229,20.6627 -0.5,23.5C -0.5,16.1667 -0.5,8.83333 -0.5,1.5 Z M 1.5,4.5 C 3.39766,6.24963 4.731,8.41629 5.5,11C 4.20677,11.49 2.87344,11.6567 1.5,11.5C 1.5,9.16667 1.5,6.83333 1.5,4.5 Z M 9.5,13.5 C 17.5953,11.7589 19.262,13.9256 14.5,20C 13.5509,20.6172 12.7175,20.4506 12,19.5C 10.878,17.5932 10.0447,15.5932 9.5,13.5 Z"/></g>
</svg>
