<?xml version="1.0" encoding="UTF-8"?>
<!DOCTYPE svg PUBLIC "-//W3C//DTD SVG 1.1//EN" "http://www.w3.org/Graphics/SVG/1.1/DTD/svg11.dtd">
<svg xmlns="http://www.w3.org/2000/svg" version="1.1" width="32px" height="32px" style="shape-rendering:geometricPrecision; text-rendering:geometricPrecision; image-rendering:optimizeQuality; fill-rule:evenodd; clip-rule:evenodd" xmlns:xlink="http://www.w3.org/1999/xlink">
<g><path style="opacity:1" fill="#b12221" d="M 4.5,4.5 C 11.8333,4.5 19.1667,4.5 26.5,4.5C 26.5,11.8333 26.5,19.1667 26.5,26.5C 19.1667,26.5 11.8333,26.5 4.5,26.5C 4.5,19.1667 4.5,11.8333 4.5,4.5 Z M 6.5,6.5 C 12.5,6.5 18.5,6.5 24.5,6.5C 24.5,12.5 24.5,18.5 24.5,24.5C 18.5,24.5 12.5,24.5 6.5,24.5C 6.5,18.5 6.5,12.5 6.5,6.5 Z"/></g>
<g><path style="opacity:0.817" fill="#b12121" d="M 15.5,9.5 C 17.924,9.19244 20.2573,9.52577 22.5,10.5C 18.1673,12.7495 15.834,16.4161 15.5,21.5C 14.0222,21.762 12.6888,21.4287 11.5,20.5C 10.5,18.5 9.5,16.5 8.5,14.5C 10.3983,13.2655 12.065,13.5989 13.5,15.5C 14.7681,13.6957 15.4348,11.6957 15.5,9.5 Z"/></g>
</svg>
